<svg xmlns="http://www.w3.org/2000/svg" enable-background="new 0 0 512 512" viewBox="0 0 512 512"><path fill="rgb(134, 118, 226)" d="M493.239 290.486H18.761c-10.289 0-18.659 8.37-18.659 18.713v46.595c0 5.171 2.079 9.863 5.491 13.221 3.358 3.412 8.05 5.491 13.168 5.491h474.478c10.289 0 18.659-8.37 18.659-18.713v-46.595C511.898 298.857 503.528 290.486 493.239 290.486zM457.2 363.79H164.037v-62.642H457.2V363.79zM280.678 215.65H442.14c20.455 0 37.095 16.639 37.095 37.095 0 2.947 2.384 5.331 5.331 5.331s5.331-2.384 5.331-5.331c0-26.333-21.424-47.757-47.757-47.757H280.678c-20.45 0-37.089-16.639-37.089-37.095v-25.068c0-2.947-2.384-5.331-5.331-5.331s-5.331 2.384-5.331 5.331v25.068C232.926 194.226 254.35 215.65 280.678 215.65z"/></svg>