<svg xmlns="http://www.w3.org/2000/svg" width="48" height="48" data-name="Layer 2"><path fill="rgb(134, 118, 226)" d="M24 5.13a.94.94 0 0 1 .94.94v6.44l2.4-2.39a.94.94 0 0 1 1.33 0 .93.93 0 0 1 0 1.33l-3.73 3.72v7.18l6.22-3.59 1.37-5.09a.94.94 0 0 1 1.82.49l-.87 3.27 5.58-3.22a.94.94 0 0 1 .94 1.64l-5.58 3.22 3.27.88a.94.94 0 0 1-.49 1.82l-5.09-1.36L25.89 24l6.22 3.59 5.09-1.36a.94.94 0 0 1 1.12.55v.11a1 1 0 0 1-.53 1.11h-.1l-3.27.88L40 32.15a.94.94 0 0 1-.93 1.64l-5.58-3.22.87 3.27A.94.94 0 0 1 33.8 35h-.12a.93.93 0 0 1-1.12-.56v-.1l-1.37-5.09-6.22-3.6v7.19l3.73 3.72a1 1 0 0 1 .08 1.25l-.08.09a.93.93 0 0 1-1.24.08l-.09-.08-2.4-2.39v6.44a.94.94 0 1 1-1.88 0v-6.46l-2.4 2.39a.93.93 0 0 1-1.24.08l-.09-.08a1 1 0 0 1-.08-1.25l.08-.09 3.73-3.72v-7.19l-6.22 3.6-1.37 5.09a1 1 0 0 1-1 .69h-.11a.93.93 0 0 1-.69-1v-.11l.87-3.27-5.63 3.15a.94.94 0 0 1-1.29-.33 1 1 0 0 1 .35-1.3l5.58-3.22-3.27-.88a1 1 0 0 1-.69-1v-.12a1 1 0 0 1 1-.68h.11l5.09 1.36L22.11 24l-6.22-3.59-5.09 1.36a.94.94 0 1 1-.49-1.77l3.27-.88L8 15.85a.94.94 0 0 1 .93-1.64l5.58 3.22-.87-3.27a.94.94 0 0 1 1.82-.49l1.36 5.09 6.23 3.6v-7.18l-3.73-3.72a1 1 0 0 1 0-1.34.94.94 0 0 1 1.33 0l2.4 2.39V6.07a.94.94 0 0 1 .95-.94Z"/></svg>