<?xml version="1.0" standalone="no"?>
<!DOCTYPE svg PUBLIC "-//W3C//DTD SVG 20010904//EN"
 "http://www.w3.org/TR/2001/REC-SVG-20010904/DTD/svg10.dtd">
<svg version="1.0" xmlns="http://www.w3.org/2000/svg"
 width="330.000000pt" height="150.000000pt" viewBox="0 0 330.000000 150.000000"
 preserveAspectRatio="xMidYMid meet">

<g transform="translate(0.000000,150.000000) scale(0.100000,-0.100000)"
fill="#000" stroke="none">
<path d="M1602 1228 c-8 -8 -9 -15 0 -25 14 -17 39 2 31 23 -6 17 -15 18 -31
2z"/>
<path d="M2055 1220 l-210 -5 212 -5 c165 -4 214 -2 218 8 2 6 1 11 -3 10 -4
-1 -101 -5 -217 -8z"/>
<path d="M943 1213 c82 -2 212 -2 290 0 78 1 12 3 -148 3 -159 0 -223 -2 -142
-3z"/>
<path d="M860 912 c-50 -25 -85 -96 -76 -157 17 -111 136 -161 213 -89 l28 26
-32 -21 c-62 -42 -139 -20 -164 46 -22 60 -1 161 39 182 50 27 142 -4 142 -46
0 -9 3 -14 6 -10 16 16 -8 59 -41 73 -45 18 -72 18 -115 -4z"/>
<path d="M1141 912 c-94 -51 -94 -213 0 -264 45 -24 79 -23 120 5 49 33 71 81
65 141 -6 57 -25 90 -69 116 -40 25 -73 25 -116 2z m100 -12 c65 -35 65 -205
0 -240 -57 -30 -115 5 -132 79 -25 111 51 204 132 161z"/>
<path d="M1415 918 c-28 -16 -35 -28 -35 -64 0 -33 17 -52 87 -97 55 -35 67
-57 47 -85 -21 -30 -79 -30 -111 0 -20 19 -23 19 -23 4 0 -19 55 -46 93 -46
39 0 77 36 77 74 0 39 -13 56 -65 86 -51 30 -85 60 -85 76 0 47 86 60 119 18
20 -26 21 -26 21 -5 0 16 -10 26 -35 37 -41 17 -63 17 -90 2z"/>
<path d="M2033 910 c-49 -29 -68 -65 -68 -130 0 -65 19 -101 68 -130 40 -25
73 -25 116 -2 94 51 94 213 0 264 -43 23 -76 23 -116 -2z m116 -24 c47 -50 47
-162 0 -212 -24 -26 -66 -31 -100 -14 -64 35 -66 202 -2 239 32 19 78 13 102
-13z"/>
<path d="M2312 920 c-12 -5 -27 -20 -33 -34 -20 -44 -4 -72 71 -120 56 -36 70
-51 70 -70 0 -60 -116 -62 -140 -3 -9 22 -9 22 -9 1 -1 -35 34 -57 90 -58 42
-1 54 3 70 23 10 13 19 36 19 51 0 31 -20 50 -102 101 -35 21 -48 35 -48 52 0
31 18 47 55 47 34 0 56 -14 73 -45 11 -20 11 -20 12 1 0 44 -76 76 -128 54z"/>
<path d="M1622 778 l2 -143 6 120 5 120 56 -115 57 -115 53 115 54 114 5 -108
c5 -98 7 -109 29 -127 13 -10 30 -19 38 -19 11 0 8 6 -8 19 -22 17 -23 27 -27
150 -3 94 -8 131 -17 131 -6 0 -36 -51 -65 -112 l-52 -113 -54 113 c-74 157
-85 153 -82 -30z"/>
<path d="M1601 366 c-9 -10 -8 -16 3 -25 10 -9 16 -8 25 3 9 10 8 16 -3 25
-10 9 -16 8 -25 -3z"/>
<path d="M2055 360 l-210 -5 215 -5 c118 -3 216 -5 217 -5 1 0 -1 5 -5 10 -4
6 -87 8 -217 5z"/>
<path d="M947 353 c79 -2 207 -2 285 0 79 1 15 3 -142 3 -157 0 -221 -2 -143
-3z"/>
</g>
</svg>
